<?xml version="1.0" ?><svg style="enable-background:new 0 0 48 48;" version="1.1" viewBox="0 0 48 48" xml:space="preserve" xmlns="http://www.w3.org/2000/svg" xmlns:xlink="http://www.w3.org/1999/xlink"><g id="Icons"><g><path d="M42.14,38.47877c-6.3,2.17-12.43,2.89-17.8,2.89c-0.27,0-0.54,0-0.8-0.01    c-10.34-0.14-17.68-2.91-17.68-2.91l1.56-3.77c1.08-2.59,3.57-4.61,6.73-5.45l5.8-1.55l0.04-0.01h0.4l7.16,0.03h0.46l0.06,0.02    l5.78,1.54c3.16,0.84,5.66,2.86,6.73,5.45L42.14,38.47877z" style="fill:#F4F4F4;"/><path d="M42.14,38.47877c-6.3,2.17-12.43,2.89-17.8,2.89c-0.27,0-0.54,0-0.8-0.01    c-10.34-0.14-17.68-2.91-17.68-2.91l1.56-3.77c1.08-2.59,3.57-4.61,6.73-5.45l5.79-1.53l0.07-0.02l0.04-0.01l0.04-0.14l0.36-1.2    l0.09-0.28l6.72,0.06l0.12,0.26l0.55,1.15l0.08,0.18l0.06,0.02l5.78,1.54c3.16,0.84,5.66,2.86,6.73,5.45L42.14,38.47877z" style="fill:#A67358;"/><path d="M20.1371,25.92977l-0.1491,1.7384c0,0,2.5023,1.4227,2.8585,2.2556    c0.763-0.4021,1.4977-0.4806,2.2236-0.058l2.9437-2.1675l-0.1921-1.899L20.1371,25.92977z" style="fill:#DDBEA8;"/><path d="M16.7919,7.06477c0,0,0.0705,1.4812,0.6481,2.1706c0,0-1.6961,1.0227-1.8011,3.1515    c-0.1049,2.1288,1.0377,5.2278,1.0377,5.2278s0.4973-2.2578,1.4628-3.1931c0.9656-0.9354,1.7735-1.4331,1.7735-1.4331    s1.0853,0.6879,3.3856,0.7882c2.3004,0.1002,4.2163,0.3694,6.1086-1.0928c0,0,0.1019,0.2195,0.4961,1.0242    c0.3943,0.8046,1.0628,2.9927,1.0803,3.9066c0,0,1.2369-2.0346,1.4305-4.701c0.1935-2.6664,0.0906-3.6596-1.6803-3.4211    c0,0-0.0723-2.288-1.7602-2.7611c-1.688-0.473-6.1822,0.8709-7.3111,1.0645C20.5335,7.98947,17.5391,7.81207,16.7919,7.06477z" style="fill:#464747;"/><path d="M18.8998,11.34057c0,0,0.1428,0.7472-1.1092,2.371c-1.2519,1.6239-1.1816,3.7223-1.1816,3.7223    s-1.0114,0.2819-1.1375,1.5086c-0.1262,1.2267,0.0305,2.6853,1.923,3.1192c0,0,0.8791,2.827,2.4982,3.9063    c1.6192,1.0793,3.2374,1.8804,4.9502,1.5365c1.7128-0.3439,4.3767-1.7422,5.5369-5.5235c0,0,1.1563,0.263,1.8361-0.9449    c0.6798-1.2079,0.467-2.8063-0.5474-3.5161l-0.6386-0.0962c0,0,0.0784-1.4971-0.5142-2.5682    c-0.5927-1.0711-1.0082-1.6768-0.6289-3.3737C26.4832,13.65857,22.8027,13.45477,18.8998,11.34057z" style="fill:#F9D9C0;"/><ellipse cx="26.95635" cy="17.81129" rx="2.097" ry="2.11015" style="fill:#464747;"/><ellipse cx="20.80605" cy="17.81129" rx="2.097" ry="2.11015" style="fill:#464747;"/><g><g><path d="M27.7869,23.72617c-0.3663,0-0.7945-0.1836-1.2779-0.5488      c-0.6504-0.4922-1.2202-0.709-1.6548-0.6289c-0.3486,0.0654-0.5034,0.3086-0.5097,0.3184      c-0.1153,0.1865-0.3594,0.249-0.5469,0.1357c-0.187-0.1113-0.2524-0.3496-0.144-0.5391      c0.0322-0.0556,0.3354-0.5547,1.0249-0.6953c0.6762-0.1416,1.4541,0.1211,2.3129,0.7705      c0.5498,0.4151,0.8145,0.4043,0.8565,0.378c0.1128-0.1905,0.3423-0.2305,0.5317-0.1182c0.19,0.1133,0.2354,0.3799,0.1226,0.5693      c-0.0776,0.1309-0.2554,0.2881-0.5225,0.3408C27.9177,23.72037,27.8533,23.72617,27.7869,23.72617z" style="fill:#464747;"/></g><g><path d="M20.2151,23.72617c-0.0664,0-0.1309-0.0058-0.1929-0.0176      c-0.2671-0.0527-0.4448-0.2099-0.5225-0.3408c-0.1127-0.1894-0.0507-0.4345,0.1392-0.5478      c0.1909-0.1123,0.436-0.0508,0.5483,0.1396c0.0079-0.0176,0.273-0.0049,0.8233-0.4209c0.8594-0.6484,1.6362-0.9101,2.313-0.7705      c0.6889,0.1406,0.9922,0.6397,1.0244,0.6963c0.1099,0.1914,0.0434,0.4356-0.1484,0.5449      c-0.1905,0.1094-0.4317,0.045-0.543-0.1425c-0.0108-0.0176-0.1655-0.254-0.5093-0.3184      c-0.4297-0.0791-1.0034,0.1377-1.6543,0.6289C21.0095,23.54257,20.5808,23.72617,20.2151,23.72617z" style="fill:#464747;"/></g><g><path d="M23.9851,21.52507c-0.0591,0-0.1177-0.0137-0.1724-0.0391l-0.6225-0.2969      c-0.1992-0.0957-0.2837-0.334-0.1885-0.5332c0.0947-0.2002,0.3335-0.2832,0.5332-0.1894l0.4541,0.2168l0.4844-0.2198      c0.2007-0.0898,0.4389-0.0019,0.5298,0.1993c0.0913,0.2011,0.0024,0.4375-0.1988,0.5292l-0.6538,0.2969      C24.0979,21.51237,24.0412,21.52507,23.9851,21.52507z" style="fill:#CEAA91;"/></g></g><g><g><path d="M25.1028,18.21157H22.658c-0.2768,0-0.5015-0.1797-0.5015-0.4004      c0-0.2207,0.2247-0.4004,0.5015-0.4004h2.4448c0.2767,0,0.5014,0.1797,0.5014,0.4004      C25.6042,18.03187,25.3795,18.21157,25.1028,18.21157z" style="fill:#464747;"/></g><g><path d="M28.6263,18.20977c-0.1982,0-0.3701-0.1475-0.3959-0.3486      c-0.0289-0.2198,0.1259-0.4199,0.3447-0.4483l2.7374-0.5064c0.2197-0.0381,0.4199,0.1259,0.4482,0.3447      c0.0289,0.2197-0.1259,0.4199-0.3447,0.4482l-2.7374,0.5065C28.661,18.20877,28.6434,18.20977,28.6263,18.20977z" style="fill:#464747;"/></g><g><path d="M19.1732,18.25247c-0.0162,0-0.0323-0.001-0.0484-0.0029l-2.7269-0.4825      c-0.2192-0.0264-0.376-0.2256-0.3491-0.4453c0.0259-0.2198,0.2261-0.3799,0.4448-0.3497l2.7269,0.4826      c0.2193,0.0263,0.376,0.2256,0.3491,0.4453C19.5452,18.10307,19.3729,18.25247,19.1732,18.25247z" style="fill:#464747;"/></g></g><g><path d="M24.4,30.45877v0.64l-0.06,10.27c-0.27,0-0.54,0-0.8-0.01l0.06-10.26v-0.64     c0-0.22,0.18-0.4,0.4-0.4S24.4,30.23877,24.4,30.45877z" style="fill:#7C4E3A;"/></g><g><path d="M22.951,29.44567l-0.6652-0.5982c-0.4562-0.4102-0.9702-0.7501-1.5254-1.0087l-0.7174-0.3343     c0,0-1.7564,2.8974,0,4.7226l0.8767-0.3368c0.4695-0.1803,0.9155-0.4176,1.328-0.7063l0.7033-0.4925V29.44567L22.951,29.44567z" style="fill:#F43735;"/><path d="M24.4738,31.09917h-0.9459c-0.3186,0-0.5769-0.2583-0.5769-0.5769v-0.9074     c0-0.3186,0.2582-0.5768,0.5768-0.5768h0.946c0.3186,0,0.5768,0.2582,0.5768,0.5768v0.9076     C25.0506,30.84097,24.7924,31.09917,24.4738,31.09917z" style="fill:#CE2121;"/><path d="M25.0507,29.44567l0.5268-0.4738c0.548-0.4927,1.1654-0.901,1.8321-1.2116l0.5492-0.2558     c0,0,1.7563,2.8974,0,4.7226l-0.7346-0.2822c-0.564-0.2166-1.0996-0.5015-1.5951-0.8484l-0.5784-0.405V29.44567L25.0507,29.44567     z" style="fill:#F43735;"/></g></g></g></svg>