<?xml version="1.0" ?><svg style="enable-background:new 0 0 48 48;" version="1.1" viewBox="0 0 48 48" xml:space="preserve" xmlns="http://www.w3.org/2000/svg" xmlns:xlink="http://www.w3.org/1999/xlink"><g id="Icons"><g><path d="M41.865,38.05597c-6.2,2.12-12.24,2.83-17.53,2.82c-0.27,0-0.53,0-0.8-0.01    c-10.16-0.14-17.4-2.85-17.4-2.85l1.54-3.69c0.3399-0.81,0.83-1.57,1.43-2.24c0.1-0.12,0.2-0.23,0.31-0.34    c0.19-0.19,0.39-0.38,0.59-0.55c0.13-0.11,0.2599-0.22,0.4-0.32c0.41-0.32,0.85-0.6,1.32-0.86c0.15-0.08,0.31-0.16,0.47-0.24    c0.48-0.24,0.99-0.44,1.52-0.61c0.01,0,0.01,0,0.02,0c0.18-0.06,0.37-0.12,0.56-0.17l1.3-0.34l2.79-0.74l1.12-0.3h8.89l1.38,0.37    l3.92,1.03c0.23,0.06,0.46,0.13,0.68,0.21c0.35,0.12,0.69,0.24,1.02,0.39c0.33,0.14,0.64,0.3,0.95,0.47    c0.16,0.09,0.31,0.17,0.45,0.27c0.1,0.05,0.19,0.11,0.2799,0.18c0.0901,0.06,0.1801,0.12,0.2701,0.19c0.15,0.1,0.3,0.22,0.44,0.33    c0.38,0.3,0.74,0.64,1.06,0.99c0.08,0.09,0.16,0.18,0.2299,0.27c0.0701,0.09,0.1401,0.17,0.2101,0.26c0.08,0.1,0.15,0.2,0.22,0.3    c0.33,0.47,0.61,0.97,0.83,1.49L41.865,38.05597z" style="fill:#F4F4F4;"/><path d="M41.865,38.05597c-6.2,2.12-12.24,2.83-17.53,2.82c-0.27,0-0.53,0-0.8-0.01    c-10.16-0.14-17.4-2.85-17.4-2.85l1.54-3.69c0.3399-0.81,0.83-1.57,1.43-2.24c0.1-0.12,0.2-0.23,0.31-0.34    c0.19-0.19,0.39-0.38,0.59-0.55c0.13-0.11,0.2599-0.22,0.4-0.32c0.41-0.32,0.85-0.6,1.32-0.86c0.15-0.08,0.31-0.16,0.47-0.24    c0.48-0.24,0.99-0.44,1.52-0.61c0.01,0,0.01,0,0.02,0c0.2-0.05,0.46,0.06,0.65,0.01l1.21-0.52l2.79-0.74l1.24-0.07l0.1999-0.23    l0.3101-0.35l7.48,0.17l0.3,0.18l0.31,0.19l1.55,0.18l2.72,0.72l0.99,0.51c0.24,0.06,0.67-0.07,0.89,0.01    c0.35,0.12,0.69,0.24,1.02,0.39c0.33,0.14,0.65,0.3,0.95,0.47c0.16,0.09,0.31,0.17,0.45,0.27c0.1,0.05,0.19,0.11,0.2799,0.18    c0.0901,0.06,0.1801,0.12,0.2701,0.19c0.15,0.1,0.3,0.22,0.44,0.33c0.38,0.3,0.74,0.64,1.06,0.99c0.08,0.09,0.16,0.18,0.2299,0.27    c0.0701,0.09,0.1401,0.17,0.2101,0.26c0.08,0.1,0.15,0.2,0.22,0.3c0.33,0.47,0.61,0.97,0.83,1.49L41.865,38.05597z" style="fill:#1FAA22;"/><polyline points="27.8765,27.00217 28.3964,27.62057 29.7784,27.98567 26.6975,33.24077 24.0392,30.61317     21.2277,33.24077 18.3808,27.91747 19.5834,27.52627 20.1129,26.85957 20.8,27.37907 27.0589,27.19477 27.8765,27.00217   " style="fill:#BCBCBC;"/><polygon points="32.4947,34.42997 32.4947,40.30017 34.3752,39.99427 34.3844,34.42997 33.4395,33.62877       " style="fill:#DBA203;"/><polygon points="13.7214,39.92487 15.5948,40.23707 15.5948,34.42997 14.7362,33.81107 13.7094,34.42997       " style="fill:#DBA203;"/><path d="M13.6979,29.17247l0.0115,5.2575h1.8854v-5.7783    C14.8301,28.85057,14.0375,29.05257,13.6979,29.17247z" style="fill:#FFC601;"/><g><path d="M24.335,28.65597v12.22c-0.27,0-0.53,0-0.8-0.01v-12.21c0-0.22,0.18-0.4,0.4-0.4     C24.155,28.25597,24.335,28.43597,24.335,28.65597z" style="fill:#158215;"/></g><circle cx="26.4875" cy="31.02827" r="0.4213" style="fill:#999796;"/><circle cx="21.51432" cy="31.02827" r="0.42127" style="fill:#999796;"/><path d="M34.3931,29.22937c-0.4048-0.1437-1.1347-0.3319-1.8984-0.5261v5.7267h1.8897L34.3931,29.22937z" style="fill:#FFC601;"/><g><path d="M16.7181,17.37857c0,0-0.8315,0.26-0.9889,1.4846c-0.1575,1.2246,0.0102,3.1194,1.9179,3.0427     c0,0,1.5065,2.9269,2.9107,3.5242c1.4042,0.5972,2.3335,0.4238,3.2372-0.8364c0,0,0.7054,1.3402,2.2087,1.1577     c1.5033-0.1826,2.9711-1.8058,4.279-3.8455c0,0,1.0206,0.3241,1.7875-0.8936c0.7669-1.2178,0.3926-2.8898-0.7743-3.5511     l-0.5267,0.2695c0,0-0.4323-0.6454-0.2014-2.4977s-0.2124-2.7125-1.3783-3.2016c0,0-3.3865,3.103-7.4964,0.8238     s-4.4054-0.1735-4.3999,1.8349c0.0055,2.0083,1.216,1.8193,0.0345,3.103L16.7181,17.37857z" style="fill:#F9D9C0;"/><path d="M30.2801,21.83587c-0.49,1.84-0.3399,3.57-1.7699,4.66c-0.9101,0.6999-1.9601,1.65-3.1001,2.17     c-0.49,0.2199-1,0.36-1.5199,0.36c-1.6501,0-3.19-1.5201-4.45-2.49c-1.4601-1.12-1.31-2.86-1.85-4.7     c0.2699,0.2299,3.5899,6.45,6.3399,2.5399C26.6902,28.28587,30.0102,22.06577,30.2801,21.83587z" style="fill:#464747;"/><path d="M30.8189,18.41327c0,0-1.3195-1.3786-0.7281-3.4353c0.506-1.7597-1.1271-2.1898-1.1271-2.1898     s-3.6694,3.5473-8.2562,0.6286c-4.5868-2.9188-2.5107,3.278-2.7038,3.6822c0,0-0.1922,0.82-0.8055,1.3143     c0,0-2.1258-3.5361-0.5314-7.5665s11.7742-5.8174,13.1232,0c0,0,2.3364,0.5001,2.126,3.1559     C31.6298,17.61467,30.8189,18.41327,30.8189,18.41327z" style="fill:#464747;"/><g><path d="M24.0239,21.46917c-0.0591,0-0.1177-0.0137-0.1719-0.0391l-0.6128-0.292      c-0.1997-0.0957-0.2842-0.334-0.1894-0.5332c0.0952-0.2002,0.3359-0.2842,0.5332-0.1894l0.4448,0.2119l0.4746-0.2149      c0.1997-0.0898,0.4385-0.0019,0.5293,0.1993c0.0913,0.2011,0.002,0.4384-0.1992,0.5293l-0.6436,0.2919      C24.1367,21.45647,24.08,21.46917,24.0239,21.46917z" style="fill:#CEAA91;"/></g><g><g><path d="M28.9365,24.14687c-0.1245,0-0.2466-0.0576-0.3252-0.166       c-0.1206-0.1338-0.9844-0.707-1.7105-1.1543c-1.4306-0.7422-2.6684-0.1309-2.6811-0.124       c-0.1963,0.1006-0.4375,0.0215-0.5376-0.1758c-0.0996-0.1973-0.021-0.4375,0.1763-0.5371       c0.0654-0.0322,1.6215-0.7988,3.4365,0.1406c0.8096,0.4981,1.7822,1.1279,1.9658,1.3818       c0.1289,0.1797,0.0884,0.4297-0.0908,0.5586C29.0991,24.12147,29.0175,24.14687,28.9365,24.14687z" style="fill:#464747;"/></g><g><path d="M19.1128,24.41247c-0.0689,0-0.1387-0.0185-0.2027-0.0556       c-0.1904-0.1123-0.2534-0.3574-0.1416-0.5479c0.6348-1.0781,1.9844-1.666,2.0415-1.6904       c1.7891-0.9287,3.3447-0.1631,3.4097-0.1289c0.1973,0.0996,0.2759,0.3398,0.1763,0.5371       c-0.1001,0.1973-0.3379,0.2773-0.5362,0.1768l0,0c-0.0517-0.0254-1.2676-0.6104-2.708,0.1376       c-0.0376,0.0166-1.1938,0.5245-1.6938,1.3741C19.3833,24.34117,19.25,24.41247,19.1128,24.41247z" style="fill:#464747;"/></g></g><g><path d="M24.8671,24.60197H22.997c-0.2207,0-0.3999-0.1797-0.3999-0.4004      c0-0.2207,0.1792-0.4004,0.3999-0.4004h1.8701c0.2208,0,0.4,0.1797,0.4,0.4004      C25.2671,24.42227,25.0879,24.60197,24.8671,24.60197z" style="fill:#CEAA91;"/></g><g><g><path d="M25.1914,17.31487c-0.1787,0-0.3413-0.1211-0.3872-0.3018       c-0.0542-0.2148,0.0752-0.4316,0.2895-0.4863l0.6592-0.167c0.5669-0.1436,1.1484-0.2373,1.7275-0.2793l1.2803-0.0918       c0.2256,0.0049,0.4121,0.1504,0.4277,0.3711c0.0157,0.2197-0.1499,0.4111-0.3701,0.4277l-1.2807,0.0918       c-0.5328,0.0381-1.0669,0.1241-1.5884,0.2559l-0.6592,0.167C25.2573,17.31097,25.2241,17.31487,25.1914,17.31487z" style="fill:#CEAA91;"/></g><g><path d="M25.5503,18.44567c-0.2207,0-0.3999-0.1796-0.3999-0.4004c0-0.1806,0.1196-0.333,0.2836-0.3828       c0.8443-0.3984,1.7393-0.4433,2.6997-0.1513c0.2115,0.0644,0.3306,0.2871,0.2667,0.499       c-0.064,0.2109-0.2847,0.331-0.4991,0.2666c-1.1577-0.3496-1.8642-0.0137-2.0962,0.0957       C25.7514,18.39787,25.6098,18.44567,25.5503,18.44567z" style="fill:#CEAA91;"/></g><g><path d="M22.6181,17.31487c-0.0327,0-0.0659-0.0039-0.0986-0.0127l-0.6592-0.167       c-0.521-0.1318-1.0552-0.2178-1.5879-0.2559l-1.2807-0.0918c-0.2203-0.0166-0.3858-0.208-0.3702-0.4277       c0.0162-0.2207,0.2159-0.3662,0.4278-0.3711l1.2807,0.0918c0.5791,0.042,1.1602,0.1357,1.7266,0.2793l0.6592,0.167       c0.2143,0.0547,0.3437,0.2715,0.2895,0.4863C22.9594,17.19377,22.7968,17.31487,22.6181,17.31487z" style="fill:#CEAA91;"/></g><g><path d="M22.2597,18.44567c-0.0595,0-0.2011-0.0478-0.2544-0.0732       c-0.2324-0.1094-0.9384-0.4463-2.0966-0.0957c-0.2159,0.0644-0.4356-0.0557-0.4991-0.2666       c-0.0639-0.2119,0.0552-0.4346,0.2666-0.499c0.9659-0.292,1.8648-0.2461,2.6724,0.1386c0.2212,0,0.3555,0.1768,0.3555,0.3975       C22.7041,18.26897,22.4804,18.44567,22.2597,18.44567z" style="fill:#CEAA91;"/></g></g></g></g></g></svg>